<svg width="60" height="80" viewBox="0 0 60 80" fill="none" xmlns="http://www.w3.org/2000/svg">
<g clipPath="url(#clip0_85_325)">
<mask id="mask0_85_325" style="mask-type:alpha" maskUnits="userSpaceOnUse" x="0" y="0" width="60" height="80">
<rect width="60" height="80" fill="#D9D9D9"/>
</mask>
<g mask="url(#mask0_85_325)">
<path d="M58.4445 78.4444H1.33341C0.965225 78.4444 0.666748 78.7429 0.666748 79.1111C0.666748 79.4793 0.965225 79.7777 1.33341 79.7777H58.4445C58.8127 79.7777 59.1112 79.4793 59.1112 79.1111C59.1112 78.7429 58.8127 78.4444 58.4445 78.4444Z" fill="white"/>
<path d="M55.1111 73.3333H4.66667C4.29848 73.3333 4 73.6318 4 74C4 74.3682 4.29848 74.6666 4.66667 74.6666H55.1111C55.4793 74.6666 55.7778 74.3682 55.7778 74C55.7778 73.6318 55.4793 73.3333 55.1111 73.3333Z" fill="white"/>
<path d="M51.7777 67.5555H7.99992C7.63173 67.5555 7.33325 67.854 7.33325 68.2222C7.33325 68.5904 7.63173 68.8889 7.99992 68.8889H51.7777C52.1459 68.8889 52.4444 68.5904 52.4444 68.2222C52.4444 67.854 52.1459 67.5555 51.7777 67.5555Z" fill="white"/>
<path d="M47.3334 0.444458H12.4445C12.0763 0.444458 11.7778 0.742935 11.7778 1.11112C11.7778 1.47931 12.0763 1.77779 12.4445 1.77779H47.3334C47.7016 1.77779 48.0001 1.47931 48.0001 1.11112C48.0001 0.742935 47.7016 0.444458 47.3334 0.444458Z" fill="white"/>
<path d="M47.3334 12.2222H12.4445C12.0763 12.2222 11.7778 12.5207 11.7778 12.8889C11.7778 13.2571 12.0763 13.5556 12.4445 13.5556H47.3334C47.7016 13.5556 48.0001 13.2571 48.0001 12.8889C48.0001 12.5207 47.7016 12.2222 47.3334 12.2222Z" fill="white"/>
<path d="M58.4445 5.11108H1.33341C0.965225 5.11108 0.666748 5.40956 0.666748 5.77775C0.666748 6.14594 0.965225 6.44442 1.33341 6.44442H58.4445C58.8127 6.44442 59.1112 6.14594 59.1112 5.77775C59.1112 5.40956 58.8127 5.11108 58.4445 5.11108Z" fill="white"/>
<path d="M0.666748 5.77775L0.666748 14.4444C0.666748 14.8126 0.965225 15.1111 1.33341 15.1111C1.7016 15.1111 2.00008 14.8126 2.00008 14.4444L2.00008 5.77775C2.00008 5.40956 1.7016 5.11108 1.33341 5.11108C0.965225 5.11108 0.666748 5.40956 0.666748 5.77775Z" fill="white"/>
<path d="M11.7778 18.6667L11.7778 63.1112C11.7778 63.4794 12.0763 63.7778 12.4445 63.7778C12.8127 63.7778 13.1112 63.4794 13.1112 63.1112L13.1112 18.6667C13.1112 18.2985 12.8127 18.0001 12.4445 18.0001C12.0763 18.0001 11.7778 18.2985 11.7778 18.6667Z" fill="white"/>
<path d="M25.3333 18.6667L25.3333 63.1112C25.3333 63.4794 25.6317 63.7778 25.9999 63.7778C26.3681 63.7778 26.6666 63.4794 26.6666 63.1112L26.6666 18.6667C26.6666 18.2985 26.3681 18.0001 25.9999 18.0001C25.6317 18.0001 25.3333 18.2985 25.3333 18.6667Z" fill="white"/>
<path d="M32.2222 18.6667V63.1112C32.2222 63.4794 32.5206 63.7778 32.8888 63.7778C33.257 63.7778 33.5555 63.4794 33.5555 63.1112V18.6667C33.5555 18.2985 33.257 18.0001 32.8888 18.0001C32.5206 18.0001 32.2222 18.2985 32.2222 18.6667Z" fill="white"/>
<path d="M39.1111 18.6667V63.1112C39.1111 63.4794 39.4096 63.7778 39.7778 63.7778C40.1459 63.7778 40.4444 63.4794 40.4444 63.1112V18.6667C40.4444 18.2985 40.1459 18.0001 39.7778 18.0001C39.4096 18.0001 39.1111 18.2985 39.1111 18.6667Z" fill="white"/>
<path d="M44.8889 60.0001V63.1112C44.8889 63.4794 45.1874 63.7778 45.5556 63.7778C45.9238 63.7778 46.2222 63.4794 46.2222 63.1112V60.0001C46.2222 59.6319 45.9238 59.3334 45.5556 59.3334C45.1874 59.3334 44.8889 59.6319 44.8889 60.0001Z" fill="white"/>
<path d="M44.8889 18.6667V21.7778C44.8889 22.146 45.1874 22.4445 45.5556 22.4445C45.9238 22.4445 46.2222 22.146 46.2222 21.7778V18.6667C46.2222 18.2985 45.9238 18 45.5556 18C45.1874 18 44.8889 18.2985 44.8889 18.6667Z" fill="white"/>
<path d="M18.4443 60.0001V63.1112C18.4443 63.4794 18.7428 63.7778 19.111 63.7778C19.4792 63.7778 19.7777 63.4794 19.7777 63.1112V60.0001C19.7777 59.6319 19.4792 59.3334 19.111 59.3334C18.7428 59.3334 18.4443 59.6319 18.4443 60.0001Z" fill="white"/>
<path d="M57.7778 5.77775V14.4444C57.7778 14.8126 58.0763 15.1111 58.4445 15.1111C58.8127 15.1111 59.1112 14.8126 59.1112 14.4444V5.77775C59.1112 5.40956 58.8127 5.11108 58.4445 5.11108C58.0763 5.11108 57.7778 5.40956 57.7778 5.77775Z" fill="white"/>
<path d="M6 11.3333V14.4444C6 14.8126 6.29848 15.1111 6.66667 15.1111C7.03486 15.1111 7.33333 14.8126 7.33333 14.4444V11.3333C7.33333 10.9651 7.03486 10.6666 6.66667 10.6666C6.29848 10.6666 6 10.9651 6 11.3333Z" fill="white"/>
<path d="M52.4443 11.3333V14.4444C52.4443 14.8126 52.7428 15.1111 53.111 15.1111C53.4792 15.1111 53.7777 14.8126 53.7777 14.4444V11.3333C53.7777 10.9651 53.4792 10.6666 53.111 10.6666C52.7428 10.6666 52.4443 10.9651 52.4443 11.3333Z" fill="white"/>
<path d="M6.66675 13.7778H1.33341C0.965225 13.7778 0.666748 14.0763 0.666748 14.4445C0.666748 14.8127 0.965225 15.1112 1.33341 15.1112H6.66675C7.03494 15.1112 7.33341 14.8127 7.33341 14.4445C7.33341 14.0763 7.03494 13.7778 6.66675 13.7778Z" fill="white"/>
<path d="M19.1112 62.4445H12.4445C12.0763 62.4445 11.7778 62.7429 11.7778 63.1111C11.7778 63.4793 12.0763 63.7778 12.4445 63.7778H19.1112C19.4794 63.7778 19.7778 63.4793 19.7778 63.1111C19.7778 62.7429 19.4794 62.4445 19.1112 62.4445Z" fill="white"/>
<path d="M32.6666 48.4444H25.9999C25.6317 48.4444 25.3333 48.7429 25.3333 49.1111C25.3333 49.4793 25.6317 49.7777 25.9999 49.7777H32.6666C33.0348 49.7777 33.3333 49.4793 33.3333 49.1111C33.3333 48.7429 33.0348 48.4444 32.6666 48.4444Z" fill="white"/>
<path d="M32.8888 18H25.9999C25.6317 18 25.3333 18.2985 25.3333 18.6667C25.3333 19.0349 25.6317 19.3333 25.9999 19.3333H32.8888C33.257 19.3333 33.5555 19.0349 33.5555 18.6667C33.5555 18.2985 33.257 18 32.8888 18Z" fill="white"/>
<path d="M45.5555 18H39.7778C39.4096 18 39.1111 18.2985 39.1111 18.6667C39.1111 19.0349 39.4096 19.3333 39.7778 19.3333H45.5555C45.9237 19.3333 46.2222 19.0349 46.2222 18.6667C46.2222 18.2985 45.9237 18 45.5555 18Z" fill="white"/>
<path d="M45.5555 62.4445H39.7778C39.4096 62.4445 39.1111 62.7429 39.1111 63.1111C39.1111 63.4793 39.4096 63.7778 39.7778 63.7778H45.5555C45.9237 63.7778 46.2222 63.4793 46.2222 63.1111C46.2222 62.7429 45.9237 62.4445 45.5555 62.4445Z" fill="white"/>
<path d="M58.4443 13.7778H53.111C52.7428 13.7778 52.4443 14.0763 52.4443 14.4445C52.4443 14.8127 52.7428 15.1112 53.111 15.1112H58.4443C58.8125 15.1112 59.111 14.8127 59.111 14.4445C59.111 14.0763 58.8125 13.7778 58.4443 13.7778Z" fill="white"/>
</g>
</g>
<defs>
<clipPath id="clip0_85_325">
<rect width="60" height="80" fill="white"/>
</clipPath>
</defs>
</svg>
